# xmcd
#
# Track frame offsets: 
#        150
#        15042
#        38560
#        58724
#        78723
#        101933
#        124250
#        145038
#        162789
#        179871
#        199691
#        221172
#        237755
#        256768
#        275168
#        290337
#
# Disc length: 4127 seconds
#
# Revision: 0
# Processed by: cddbd v1.5.2PL0 Copyright (c) Steve Scherf et al.
# Submitted via: ExactAudioCopy v1.0b3
#
DISCID=e9101d10
DTITLE=Various Artist - 90's Pop Tour [CD 1)
DYEAR=2017
DGENRE=Pop
TTITLE0=The Sacados Feat. Erik Rubín,Fey,JNS,OV7,Aleks Syntek,Litzy - 
TTITLE0=Ritmo De La Noche
TTITLE1=Calo - No Puedo Más
TTITLE2=Erik Rubín Feat. Calo - Dame Amor
TTITLE3=JNS Feat. Erik Rubín - Entre Azul y Buenas Noches
TTITLE4=Fey Feat. Calo - Azúcar Amargo
TTITLE5=OV7 Feat. Calo - Enloquéceme
TTITLE6=Calo Feat. OV7 - Formas De Amor
TTITLE7=Litzy Feat. JNS - No Hay Palabras
TTITLE8=Fey Feat. Erik Rubín - Gatos En El Balcón
TTITLE9=JNS Feat. OV7, The Sacados - Sólo Vivo Para Ti
TTITLE10=Aleks Syntek Feat. OV7 - Tú Necesitas
TTITLE11=Calo Feat. Aleks Syntek - Capitán
TTITLE12=Erik Rubín Feat. Litzy, OV7 - Mío-Hey Güera-Es Por Amor
TTITLE13=Aleks Syntek Feat. Erik Rubín - Mis Impulsos Sobre Ti
TTITLE14=OV7 Feat. Erik Rubín, Aleks Syntek - Tus Besos
TTITLE15=Fey Feat. JNS - Me Enamoro De Ti
EXTD=
EXTT0=
EXTT1=
EXTT2=
EXTT3=
EXTT4=
EXTT5=
EXTT6=
EXTT7=
EXTT8=
EXTT9=
EXTT10=
EXTT11=
EXTT12=
EXTT13=
EXTT14=
EXTT15=
PLAYORDER=
